HIERARCHY
ROOT Hips
{
	OFFSET 0.00 0.00 0.00
	CHANNELS 6 Xposition Yposition Zposition Xrotation Yrotation Zrotation
	JOINT RightUpLeg
	{
		OFFSET -4.47808 0.00000 0.00000
		CHANNELS 3 Xrotation Yrotation Zrotation
		JOINT RightLeg
		{
			OFFSET 0.00000 -16.40577 0.00000
			CHANNELS 3 Xrotation Yrotation Zrotation
			JOINT RightFoot
			{
				OFFSET 0.00000 -14.64414 0.00000
				CHANNELS 3 Xrotation Yrotation Zrotation
				JOINT RightToeBase
				{
					OFFSET 0.00000 -1.50274 5.60831
					CHANNELS 3 Xrotation Yrotation Zrotation
					End Site
					{
						OFFSET 0.00000 0.00000 2.95275
					}
				}
			}
		}
	}
	JOINT LeftUpLeg
	{
		OFFSET 4.47808 0.00000 0.00000
		CHANNELS 3 Xrotation Yrotation Zrotation
		JOINT LeftLeg
		{
			OFFSET 0.00000 -16.40577 0.00000
			CHANNELS 3 Xrotation Yrotation Zrotation
			JOINT LeftFoot
			{
				OFFSET 0.00000 -14.64414 0.00000
				CHANNELS 3 Xrotation Yrotation Zrotation
				JOINT LeftToeBase
				{
					OFFSET 0.00000 -1.50274 5.60831
					CHANNELS 3 Xrotation Yrotation Zrotation
					End Site
					{
						OFFSET 0.00000 0.00000 2.95275
					}
				}
			}
		}
	}
	JOINT Spine
	{
		OFFSET 0.00000 6.06821 0.00000
		CHANNELS 3 Xrotation Yrotation Zrotation
		JOINT RightShoulder
		{
			OFFSET 0.00000 10.01392 0.00000
			CHANNELS 3 Xrotation Yrotation Zrotation
			JOINT RightArm
			{
				OFFSET -7.19022 0.00000 0.00000
				CHANNELS 3 Xrotation Yrotation Zrotation
				JOINT RightForeArm
				{
					OFFSET -10.17747 0.00000 0.00000
					CHANNELS 3 Yrotation Zrotation Xrotation
					JOINT RightHand
					{
						OFFSET -8.39211 0.00000 0.00000
						CHANNELS 3 Xrotation Yrotation Zrotation
						End Site
						{
							OFFSET -3.93700 0.00000 0.00000
						}
						JOINT RightHandThumb1
						{
							OFFSET 0.00000 0.00000 0.00000
							CHANNELS 3 Xrotation Zrotation Yrotation
							End Site
							{
								OFFSET 0.00000 0.00000 3.93700
							}
						}
					}
				}
			}
		}
		JOINT LeftShoulder
		{
			OFFSET 0.00000 10.01392 0.00000
			CHANNELS 3 Xrotation Yrotation Zrotation
			JOINT LeftArm
			{
				OFFSET 7.19022 0.00000 0.00000
				CHANNELS 3 Xrotation Yrotation Zrotation
				JOINT LeftForeArm
				{
					OFFSET 10.17747 0.00000 0.00000
					CHANNELS 3 Yrotation Zrotation Xrotation
					JOINT LeftHand
					{
						OFFSET 8.39211 0.00000 0.00000
						CHANNELS 3 Xrotation Yrotation Zrotation
						End Site
						{
							OFFSET 3.93700 0.00000 0.00000
						}
						JOINT LeftHandThumb1
						{
							OFFSET 0.00000 0.00000 0.00000
							CHANNELS 3 Xrotation Zrotation Yrotation
							End Site
							{
								OFFSET 0.00000 0.00000 3.93700
							}
						}
					}
				}
			}
		}
		JOINT Head
		{
			OFFSET 0.00000 15.77748 0.00000
			CHANNELS 3 Xrotation Yrotation Zrotation
			End Site
			{
				OFFSET 0.00000 4.52755 0.00000
			}
		}
	}
}
MOTION
Frames: 19
Frame Time: 0.008333
 -2.6096 33.0777 -0.2985 8.9259 -4.0512 2.8032 -2.9785 -5.5593 -2.6217 -0.0989 -0.0000 -0.0000 -11.4420 -2.7658 3.9018 5.0629 -0.0000 -0.0000 -1.8768 6.4821 2.4074 1.1562 0.0000 0.0000 -10.5842 6.2566 -9.6024 6.8244 -0.0000 -0.0000 -9.0765 -1.9626 -1.3319 5.5320 -25.6417 -28.6627 -36.0349 -2.8314 31.8429 9.0280 -0.0000 10.0460 -2.1871 9.6966 12.7753 32.8623 0.0000 -24.3270 -5.7069 26.0558 33.5654 -31.2918 2.3369 -27.7759 0.4573 0.0000 24.4821 0.5633 2.8389 -11.2268 33.1476 -0.0000 26.2537 -4.0233 5.4842 -0.7747
 -2.6127 33.0772 -0.2938 8.9333 -4.0474 2.8020 -2.9722 -5.5490 -2.6150 -0.1038 -0.0000 -0.0000 -11.4545 -2.7759 3.8872 5.0931 -0.0000 0.0000 -1.8880 6.5391 2.4118 1.1724 0.0000 0.0000 -10.6103 6.2104 -9.5758 6.9059 0.0000 0.0000 -9.0830 -1.9603 -1.3453 5.5147 -25.6313 -28.6411 -36.0073 -2.8432 31.8631 9.0263 -0.0000 10.0685 -2.1812 9.7296 12.7006 32.8623 0.0000 -24.3270 -5.7423 26.0407 33.5831 -31.2529 2.2441 -27.7836 0.5496 0.0000 24.4553 0.5567 2.8289 -11.1371 33.1476 -0.0000 26.2537 -4.0318 5.4713 -0.7507
 -2.6167 33.0772 -0.2873 8.9271 -4.0430 2.7864 -2.9394 -5.5755 -2.5923 -0.1318 -0.0000 -0.0000 -11.4329 -2.7488 3.8799 5.0490 -0.0000 -0.0000 -1.8682 6.5543 2.4340 1.1583 -0.0000 -0.0000 -10.6009 6.1851 -9.6040 6.8883 0.0000 0.0000 -9.0794 -1.9680 -1.3436 5.5245 -25.6211 -28.6139 -35.9976 -2.8670 31.8822 9.0466 -0.0000 10.1219 -2.1720 9.7222 12.6581 32.8623 0.0000 -24.3270 -5.7404 26.0562 33.6191 -31.2717 2.2757 -27.8137 0.4566 0.0000 24.4922 0.5638 2.8559 -11.1723 33.1476 -0.0000 26.2537 -4.0284 5.4916 -0.7449
 -2.6188 33.0769 -0.2830 8.9381 -4.0421 2.7858 -2.9344 -5.5730 -2.5876 -0.1455 0.0000 0.0000 -11.4346 -2.7523 3.8671 5.0532 0.0000 -0.0000 -1.8682 6.5431 2.4374 1.1556 0.0000 0.0000 -10.6163 6.2021 -9.6023 6.8865 0.0000 -0.0000 -9.0904 -1.9681 -1.3493 5.5268 -25.6258 -28.5995 -36.0170 -2.8920 31.9113 9.0532 -0.0000 10.1838 -2.1760 9.7252 12.6769 32.8623 0.0000 -24.3270 -5.7620 26.0257 33.6262 -31.2129 2.2033 -27.7970 0.5306 0.0000 24.4481 0.5553 2.8402 -11.0675 33.1476 -0.0000 26.2537 -4.0358 5.4714 -0.7365
 -2.6205 33.0765 -0.2785 8.9454 -4.0352 2.7855 -2.9254 -5.5813 -2.5845 -0.1610 -0.0000 0.0000 -11.4383 -2.7557 3.8901 5.0798 -0.0000 0.0000 -1.8662 6.5472 2.4387 1.1464 -0.0000 0.0000 -10.6104 6.2047 -9.5841 6.8753 0.0000 -0.0000 -9.0984 -1.9619 -1.3554 5.5342 -25.6366 -28.5821 -36.0008 -2.8935 31.9305 9.0640 -0.0000 10.1563 -2.1699 9.6879 12.6894 32.8623 0.0000 -24.3270 -5.7768 26.0037 33.6491 -31.1697 2.1700 -27.8019 0.5213 0.0000 24.4319 0.5406 2.7794 -11.0112 33.1476 -0.0000 26.2537 -4.0425 5.4604 -0.7313
 -2.6225 33.0759 -0.2728 8.9426 -4.0320 2.7770 -2.8991 -5.5658 -2.5720 -0.1831 0.0000 0.0000 -11.4244 -2.7697 3.8904 5.0521 0.0000 0.0000 -1.8475 6.5369 2.4490 1.1327 0.0000 0.0000 -10.6031 6.2139 -9.6274 6.8338 -0.0000 -0.0000 -9.0980 -1.9653 -1.3474 5.5316 -25.6280 -28.5825 -35.9775 -2.9093 31.9501 9.0784 -0.0000 10.1402 -2.1724 9.6936 12.6960 32.8623 0.0000 -24.3270 -5.7698 25.9937 33.6550 -31.1102 2.1323 -27.7874 0.5070 0.0000 24.3962 0.5361 2.7675 -10.9671 33.1476 -0.0000 26.2537 -4.0490 5.4572 -0.7417
 -2.6225 33.0753 -0.2697 8.9487 -4.0184 2.7796 -2.8925 -5.5281 -2.5722 -0.1887 -0.0000 -0.0000 -11.4347 -2.8264 3.8239 5.0627 -0.0000 -0.0000 -1.8483 6.5304 2.4341 1.1158 0.0000 -0.0000 -10.6151 6.2761 -9.6453 6.9405 0.0000 -0.0000 -9.0972 -1.9755 -1.3490 5.5559 -25.6409 -28.5608 -36.0024 -2.9322 31.9517 9.1032 -0.0000 10.1008 -2.1905 9.6623 12.8385 32.8623 0.0000 -24.3270 -5.7617 25.9902 33.6609 -31.0826 2.1082 -27.7766 0.4925 0.0000 24.3529 0.5325 2.7587 -10.9294 33.1476 -0.0000 26.2537 -4.0724 5.4359 -0.7500
 -2.6249 33.0750 -0.2654 8.9554 -4.0095 2.7764 -2.8839 -5.5165 -2.5658 -0.1991 -0.0000 -0.0000 -11.4259 -2.8448 3.8506 5.0287 -0.0000 0.0000 -1.8474 6.4919 2.4491 1.1281 0.0000 0.0000 -10.6255 6.2428 -9.5675 6.9001 -0.0000 0.0000 -9.1000 -1.9790 -1.3527 5.5402 -25.6441 -28.5632 -35.9727 -2.9486 31.9749 9.1417 -0.0000 10.1229 -2.1669 9.5953 12.7896 32.8623 0.0000 -24.3270 -5.7738 25.9677 33.6815 -31.0389 2.0921 -27.7521 0.4694 0.0000 24.3187 0.5262 2.7303 -10.9130 33.1476 -0.0000 26.2537 -4.1149 5.4173 -0.7114
 -2.6282 33.0746 -0.2616 8.9672 -3.9929 2.7685 -2.8778 -5.5233 -2.5549 -0.2167 0.0000 0.0000 -11.4273 -2.8427 3.8545 5.0965 -0.0000 0.0000 -1.8585 6.4667 2.4643 1.1350 -0.0000 0.0000 -10.6365 6.2525 -9.5821 6.8682 -0.0000 0.0000 -9.1089 -1.9964 -1.3545 5.5760 -25.6598 -28.5319 -35.9734 -2.9427 31.9758 9.1564 -0.0000 10.0901 -2.1750 9.6427 12.7751 32.8623 0.0000 -24.3270 -5.8099 25.9388 33.7137 -31.0002 2.0905 -27.7229 0.4436 0.0000 24.3513 0.5201 2.7034 -10.8944 33.1476 -0.0000 26.2537 -4.1335 5.4127 -0.7094
 -2.6293 33.0742 -0.2579 8.9734 -3.9760 2.7624 -2.8710 -5.5201 -2.5496 -0.2242 0.0000 0.0000 -11.4245 -2.8573 3.8561 5.0849 -0.0000 0.0000 -1.8603 6.4483 2.4708 1.1315 0.0000 0.0000 -10.6355 6.2565 -9.6047 6.8807 0.0000 0.0000 -9.1066 -2.0022 -1.3532 5.5715 -25.6703 -28.5295 -35.9332 -2.9396 31.9833 9.1808 -0.0000 10.0616 -2.1644 9.5969 12.7730 32.8623 0.0000 -24.3270 -5.7996 25.9372 33.7215 -31.0127 2.0754 -27.7023 0.4182 0.0000 24.3456 0.5173 2.6910 -10.8866 33.1476 -0.0000 26.2537 -4.1725 5.4052 -0.7004
 -2.6291 33.0742 -0.2539 8.9770 -3.9761 2.7622 -2.8717 -5.4600 -2.5480 -0.2103 0.0000 -0.0000 -11.4301 -2.9109 3.8033 5.0596 -0.0000 -0.0000 -1.8567 6.4463 2.4677 1.1337 -0.0000 0.0000 -10.6925 6.2592 -9.4063 7.0895 0.0000 -0.0000 -9.1026 -2.0054 -1.3478 5.5852 -25.6773 -28.5234 -35.9207 -2.9353 31.9855 9.2011 -0.0000 10.0297 -2.1523 9.5749 12.7318 32.8623 0.0000 -24.3270 -5.7885 25.9415 33.7240 -31.0271 2.0726 -27.6780 0.3936 0.0000 24.3394 0.5247 2.7230 -10.9117 33.1476 -0.0000 26.2537 -4.2021 5.4069 -0.7025
 -2.6304 33.0741 -0.2500 8.9763 -3.9633 2.7538 -2.8610 -5.4424 -2.5390 -0.2105 0.0000 0.0000 -11.4282 -2.9340 3.8036 5.0549 0.0000 0.0000 -1.8541 6.4457 2.4788 1.1360 0.0000 0.0000 -10.7048 6.2429 -9.4135 7.1351 -0.0000 0.0000 -9.0898 -2.0197 -1.3420 5.5634 -25.6710 -28.5204 -35.8745 -2.9259 31.9788 9.2228 -0.0000 9.9959 -2.1547 9.5885 12.7282 32.8623 0.0000 -24.3270 -5.7863 25.9440 33.7296 -31.0649 2.0726 -27.6463 0.3887 0.0000 24.3349 0.5214 2.7078 -10.9029 33.1476 -0.0000 26.2537 -4.2460 5.4031 -0.6952
 -2.6316 33.0743 -0.2460 8.9822 -3.9560 2.7444 -2.8584 -5.4166 -2.5274 -0.2074 -0.0000 -0.0000 -11.4241 -2.9686 3.7988 5.0450 -0.0000 0.0000 -1.8556 6.4572 2.4909 1.1307 0.0000 0.0000 -10.6449 6.2473 -9.6115 6.8920 -0.0000 0.0000 -9.0899 -2.0257 -1.3363 5.5995 -25.7031 -28.4863 -35.9061 -2.8952 31.9710 9.2062 -0.0000 9.9777 -2.1593 9.6133 12.7230 32.8623 0.0000 -24.3270 -5.7858 25.9661 33.7605 -31.0886 2.0970 -27.6491 0.2773 0.0000 24.3613 0.5400 2.7831 -10.9842 33.1476 -0.0000 26.2537 -4.2845 5.4051 -0.6574
 -2.6346 33.0745 -0.2431 8.9866 -3.9416 2.7369 -2.8506 -5.4211 -2.5189 -0.2167 0.0000 0.0000 -11.4049 -2.9619 3.8262 5.0006 0.0000 -0.0000 -1.8598 6.4555 2.5022 1.1318 0.0000 0.0000 -10.6509 6.2434 -9.6015 6.8885 -0.0000 0.0000 -9.0829 -2.0405 -1.3447 5.5909 -25.7033 -28.4652 -35.9016 -2.8975 31.9614 9.2144 -0.0000 9.9934 -2.1836 9.6848 12.7708 32.8623 0.0000 -24.3270 -5.8090 25.9580 33.7953 -31.0717 2.0858 -27.6269 0.2511 0.0000 24.3289 0.5447 2.8033 -11.0008 33.1476 -0.0000 26.2537 -4.3282 5.4240 -0.6208
 -2.6351 33.0750 -0.2394 8.9904 -3.9267 2.7332 -2.8455 -5.4158 -2.5153 -0.2193 -0.0000 -0.0000 -11.4030 -2.9767 3.8060 5.0276 0.0000 -0.0000 -1.8647 6.4614 2.5063 1.1380 -0.0000 -0.0000 -10.6531 6.2242 -9.6134 6.9417 -0.0000 0.0000 -9.0823 -2.0636 -1.3444 5.5976 -25.7030 -28.4516 -35.9169 -2.8975 31.9494 9.2193 -0.0000 9.9917 -2.1731 9.6403 12.7671 32.8623 0.0000 -24.3270 -5.8193 25.9495 33.8174 -31.1016 2.0926 -27.6016 0.2605 0.0000 24.3556 0.5371 2.7825 -10.9309 33.1476 -0.0000 26.2537 -4.3532 5.4316 -0.6013
 -2.6350 33.0749 -0.2358 8.9990 -3.9138 2.7308 -2.8445 -5.4057 -2.5134 -0.2199 -0.0000 -0.0000 -11.4121 -3.0051 3.8182 5.0819 -0.0000 0.0000 -1.8736 6.4773 2.5080 1.1417 0.0000 0.0000 -10.6614 6.2078 -9.6240 6.9718 -0.0000 0.0000 -9.0919 -2.0886 -1.3313 5.5941 -25.7074 -28.4598 -35.9246 -2.8496 31.9524 9.1906 -0.0000 10.0215 -2.1533 9.5892 12.7192 32.8623 0.0000 -24.3270 -5.8435 25.9061 33.8178 -30.9846 2.0029 -27.5532 0.3788 0.0000 24.2407 0.5258 2.7490 -10.8325 33.1476 -0.0000 26.2537 -4.3587 5.4111 -0.6154
 -2.6367 33.0754 -0.2308 8.9853 -3.9025 2.7316 -2.8137 -5.4002 -2.5118 -0.2326 -0.0000 0.0000 -11.4049 -3.0141 3.7669 5.0481 -0.0000 0.0000 -1.8534 6.4920 2.5085 1.1396 -0.0000 -0.0000 -10.6476 6.1865 -9.6347 6.9339 0.0000 0.0000 -9.0720 -2.0981 -1.3434 5.6041 -25.7295 -28.4391 -35.9393 -2.8352 31.9490 9.1912 -0.0000 10.0057 -2.1583 9.6132 12.7174 32.8623 0.0000 -24.3270 -5.8667 25.8856 33.8521 -30.9636 1.9922 -27.5362 0.3903 0.0000 24.2148 0.5253 2.7461 -10.8332 33.1476 -0.0000 26.2537 -4.3777 5.4297 -0.6003
 -2.6372 33.0761 -0.2284 9.0020 -3.8767 2.7320 -2.8225 -5.4131 -2.5100 -0.2346 -0.0000 0.0000 -11.3980 -3.0260 3.7621 5.0270 0.0000 0.0000 -1.8752 6.4716 2.5101 1.1461 -0.0000 -0.0000 -10.6415 6.1841 -9.6561 6.9410 -0.0000 -0.0000 -9.0902 -2.1151 -1.3570 5.6276 -25.7355 -28.4075 -35.9576 -2.8476 31.9203 9.2050 -0.0000 10.0132 -2.1590 9.6028 12.7346 32.8623 0.0000 -24.3270 -5.8743 25.8792 33.8951 -30.9855 1.9845 -27.5396 0.4021 0.0000 24.2326 0.5304 2.7680 -10.8519 33.1476 -0.0000 26.2537 -4.3724 5.3450 -0.5754
 -2.6373 33.0762 -0.2247 9.0051 -3.8660 2.7313 -2.8125 -5.4229 -2.5088 -0.2474 -0.0000 -0.0000 -11.3912 -3.0312 3.7690 5.0057 0.0000 -0.0000 -1.8793 6.4966 2.5018 1.1411 0.0000 0.0000 -10.6372 6.2145 -9.7015 7.0107 -0.0000 0.0000 -9.0955 -2.1242 -1.3554 5.6059 -25.7270 -28.4150 -35.9343 -2.8402 31.9074 9.1941 -0.0000 9.9976 -2.1561 9.6058 12.7141 32.8623 0.0000 -24.3270 -5.8624 25.8699 33.9179 -31.0173 1.9911 -27.5307 0.4193 0.0000 24.2680 0.5396 2.8111 -10.8713 33.1476 -0.0000 26.2537 -4.3713 5.3272 -0.5740
